# xmcd
#
# Track frame offsets:
#	150
#	19995
#	39323
#	54300
#	72095
#	89772
#	106066
#	127338
#	143173
#	162101
#	177916
#	195981
#
# Disc length: 2970 seconds
#
# Revision: 0
# Processed by: cddbd v1.5.2PL0 Copyright (c) Steve Scherf et al.
# Submitted via: audiograbber 1.83.01
#
DISCID=a00b980c
DTITLE=Burrito Deluxe - Disciples Of The Truth
DYEAR=2007
DGENRE=Country Rock
TTITLE0=Out of the Wilderness
TTITLE1=Sun Will Rise
TTITLE2=Front Row Seats to Heaven
TTITLE3=Disciples of the Truth
TTITLE4=Wichita
TTITLE5=On a Roll
TTITLE6=When the Summer's Over
TTITLE7=Encino
TTITLE8=When It Comes Down on You
TTITLE9=Wrong Side of Town
TTITLE10=Midnight at a Red Light
TTITLE11=Who's Gonna Love You
EXTD=
EXTT0=
EXTT1=
EXTT2=
EXTT3=
EXTT4=
EXTT5=
EXTT6=
EXTT7=
EXTT8=
EXTT9=
EXTT10=
EXTT11=
PLAYORDER=
